# xmcd
#
# Track frame offsets:
#	150
#	15914
#	45259
#	64058
#	78762
#	94321
#	117340
#	150234
#	162314
#	178962
#	199758
#	239817
#	254055
#	301206
#	316017
#
# Disc length: 4653 seconds
#
# Revision: 0
# Processed by: cddbd v1.5.2PL0 Copyright (c) Steve Scherf et al.
# Submitted via: EZCDAudioConverter 2.1.7.1
#
DISCID=ba122b0f
DTITLE=V/A - Let The Electric Children Play 1/3
DYEAR=1900
DGENRE=
TTITLE0=Alan Hull - We Can Swing Together
TTITLE1=Circus - II B.S.
TTITLE2=The Sallyangie - Midsummer Night's Happening
TTITLE3=Pentangle - Light Flight
TTITLE4=The Deviants - Billy The Monster
TTITLE5=Jody Grind - Paint It Black
TTITLE6=Circus - Norwegian Wood
TTITLE7=Alan Hull - Obadiah's Grave
TTITLE8=Gordon Giltrap - Lucifer's Cage
TTITLE9=Pentangle - Once I Had A Sweetheart
TTITLE10=The Deviants - Metamorphosis Explosion
TTITLE11=The Humblebums - Saturday Roundabout Sunday [Single]
TTITLE12=Little Free Rock - Makin' Time
TTITLE13=Mick Farren - Mona (A Fragment)
TTITLE14=Jody Grind - Plastic Shit
EXTD=
EXTT0=
EXTT1=
EXTT2=
EXTT3=
EXTT4=
EXTT5=
EXTT6=
EXTT7=
EXTT8=
EXTT9=
EXTT10=
EXTT11=
EXTT12=
EXTT13=
EXTT14=
PLAYORDER=
